<?xml version="1.0" encoding="UTF-8" standalone="no"?>
<svg
   xmlns:dc="http://purl.org/dc/elements/1.1/"
   xmlns:cc="http://creativecommons.org/ns#"
   xmlns:rdf="http://www.w3.org/1999/02/22-rdf-syntax-ns#"
   xmlns:svg="http://www.w3.org/2000/svg"
   xmlns="http://www.w3.org/2000/svg"
   xmlns:sodipodi="http://sodipodi.sourceforge.net/DTD/sodipodi-0.dtd"
   xmlns:inkscape="http://www.inkscape.org/namespaces/inkscape"
   version="1.1"
   id="Layer_1"
   x="0px"
   y="0px"
   viewBox="0 0 1200 1200"
   style="enable-background:new 0 0 1200 1200;"
   xml:space="preserve"
   sodipodi:docname="rino.svg"
   inkscape:version="1.0.2 (e86c870879, 2021-01-15)"><metadata
   id="metadata39"><rdf:RDF><cc:Work
       rdf:about=""><dc:format>image/svg+xml</dc:format><dc:type
         rdf:resource="http://purl.org/dc/dcmitype/StillImage" /><dc:title></dc:title></cc:Work></rdf:RDF></metadata><defs
   id="defs37" /><sodipodi:namedview
   pagecolor="#ffffff"
   bordercolor="#666666"
   borderopacity="1"
   objecttolerance="10"
   gridtolerance="10"
   guidetolerance="10"
   inkscape:pageopacity="0"
   inkscape:pageshadow="2"
   inkscape:window-width="1360"
   inkscape:window-height="717"
   id="namedview35"
   showgrid="false"
   inkscape:zoom="0.91666667"
   inkscape:cx="618.08593"
   inkscape:cy="598.31077"
   inkscape:window-x="0"
   inkscape:window-y="0"
   inkscape:window-maximized="1"
   inkscape:current-layer="g24" />


<g
   id="g24"
   transform="translate(273.71618,-258.12504)">
	<path
   d="m 508.5,762.2 c 10.6,-43.1 -14,-82.4 -15.1,-84.1 -4,-6.2 -12.8,-7.1 -17.9,-1.8 -0.3,0.3 -25.3,25.8 -74.8,42.5 -31.4,-16.7 -94.6,-21.5 -137.6,0 -49.1,-16.5 -74.6,-42.2 -74.8,-42.5 -5.1,-5.3 -13.9,-4.5 -17.9,1.8 -1.1,1.7 -25.7,40.9 -15.1,84.1 5.9,24 21.3,44.1 45.9,59.9 -11,72.3 -4.4,85.7 -13.3,131.5 -12.1,61.5 49.5,77.2 63.2,83.6 13.6,6.4 29.6,26.4 80.9,26.4 51.3,0 67.3,-20.1 80.9,-26.4 13.1,-6.1 75.3,-21.8 63.2,-83.6 -9,-45.8 -2.3,-59.3 -13.3,-131.5 24.4,-15.8 39.8,-35.9 45.7,-59.9 z M 183.7,702.6 c 11,8.6 29.6,21.1 55.8,31.9 -15.4,13.5 -28.6,33.3 -34.1,62.6 -31.8,-24.7 -36.8,-58.5 -21.7,-94.5 z m 219.4,313.8 c -17.2,8 -26.9,24.3 -71.2,24.3 -44.3,0 -54,-16.2 -71.2,-24.3 -18.5,-8.6 -58.4,-17.3 -50.4,-58.4 10.4,-53.1 1.1,-63.5 17.3,-155.4 5.2,-29.6 20.2,-50.1 41.9,-61.4 35.8,-18.7 86,-15 110.3,-6.4 31.5,11.1 50.5,34 56.4,67.9 16.1,91.8 6.9,102.3 17.3,155.4 8,40.8 -31.2,49.4 -50.4,58.3 z M 458.5,797 c -5.5,-29.3 -18.8,-49.1 -34.1,-62.6 26.2,-10.7 44.9,-23.3 55.9,-31.9 15.2,36.3 9.7,70.1 -21.8,94.5 z"
   id="path12" />
	<path
   d="m 342.8,776.4 c -3.4,-10.6 -18.4,-10.6 -21.8,0 l -42.4,132.5 c -3.4,10.6 0.1,22.1 8.6,28.7 29,22.4 62.9,20.4 89.3,0 8.5,-6.6 12,-18.1 8.6,-28.7 z m 19.8,143 c -18,13.9 -40.8,15.9 -61.3,0 -0.8,-0.6 -1.3,-2.1 -0.8,-3.6 l 31.5,-98.4 31.5,98.4 c 0.4,1.5 -0.1,3 -0.9,3.6 z"
   id="path14" />
	<path
   d="m 295.2,969.7 c -6.3,0 -11.4,5.1 -11.4,11.4 0,6.3 5.1,11.4 11.4,11.4 3.8,0 6.9,3.1 6.9,6.9 0,6.3 5.1,11.4 11.4,11.4 6.3,0 11.4,-5.1 11.4,-11.4 0.1,-16.4 -13.3,-29.7 -29.7,-29.7 z"
   id="path16" />
	<path
   d="m 368.7,969.7 c -16.4,0 -29.8,13.3 -29.8,29.8 0,6.3 5.1,11.4 11.4,11.4 6.3,0 11.4,-5.1 11.4,-11.4 0,-3.8 3.1,-6.9 6.9,-6.9 6.3,0 11.4,-5.1 11.4,-11.4 0,-6.3 -5,-11.5 -11.3,-11.5 z"
   id="path18" />
	<circle
   cx="254.60001"
   cy="877.20001"
   r="11.4"
   id="circle20" />
	<circle
   cx="409.29999"
   cy="877.20001"
   r="11.4"
   id="circle22" />
</g>

</svg>
