<?xml version="1.0" encoding="UTF-8" standalone="no"?>
<svg
   version="1.1"
   id="Layer_1"
   x="0px"
   y="0px"
   viewBox="0 0 358.49155 390.80453"
   xml:space="preserve"
   sodipodi:docname="rinomask.svg"
   inkscape:version="1.2.1 (9c6d41e, 2022-07-14)"
   width="358.49155"
   height="390.80453"
   xmlns:inkscape="http://www.inkscape.org/namespaces/inkscape"
   xmlns:sodipodi="http://sodipodi.sourceforge.net/DTD/sodipodi-0.dtd"
   xmlns="http://www.w3.org/2000/svg"
   xmlns:svg="http://www.w3.org/2000/svg"
   xmlns:rdf="http://www.w3.org/1999/02/22-rdf-syntax-ns#"
   xmlns:cc="http://creativecommons.org/ns#"
   xmlns:dc="http://purl.org/dc/elements/1.1/"><metadata
   id="metadata39"><rdf:RDF><cc:Work
       rdf:about=""><dc:format>image/svg+xml</dc:format><dc:type
         rdf:resource="http://purl.org/dc/dcmitype/StillImage" /></cc:Work></rdf:RDF></metadata><defs
   id="defs37" /><sodipodi:namedview
   pagecolor="#ffffff"
   bordercolor="#666666"
   borderopacity="1"
   objecttolerance="10"
   gridtolerance="10"
   guidetolerance="10"
   inkscape:pageopacity="0"
   inkscape:pageshadow="2"
   inkscape:window-width="1360"
   inkscape:window-height="717"
   id="namedview35"
   showgrid="false"
   inkscape:zoom="0.91666668"
   inkscape:cx="40.363636"
   inkscape:cy="78.545453"
   inkscape:window-x="0"
   inkscape:window-y="0"
   inkscape:window-maximized="1"
   inkscape:current-layer="g24"
   inkscape:showpageshadow="2"
   inkscape:pagecheckerboard="0"
   inkscape:deskcolor="#d1d1d1" />


<g
   id="g24"
   transform="translate(-152.65422,-672.79547)">
	<path
   d="m 508.5,762.2 c 10.6,-43.1 -14,-82.4 -15.1,-84.1 -4,-6.2 -12.8,-7.1 -17.9,-1.8 -0.3,0.3 -25.3,25.8 -74.8,42.5 -31.4,-16.7 -94.6,-21.5 -137.6,0 -49.1,-16.5 -74.6,-42.2 -74.8,-42.5 -5.1,-5.3 -13.9,-4.5 -17.9,1.8 -1.1,1.7 -25.7,40.9 -15.1,84.1 5.9,24 21.3,44.1 45.9,59.9 -11,72.3 -4.4,85.7 -13.3,131.5 -12.1,61.5 49.5,77.2 63.2,83.6 13.6,6.4 29.6,26.4 80.9,26.4 51.3,0 67.3,-20.1 80.9,-26.4 13.1,-6.1 75.3,-21.8 63.2,-83.6 -9,-45.8 -2.3,-59.3 -13.3,-131.5 24.4,-15.8 39.8,-35.9 45.7,-59.9 z"
   id="path12"
   sodipodi:nodetypes="cccccccccccscccc" />
	
	
	
	
	
</g>

</svg>
